<mxfile host="app.diagrams.net" modified="2021-05-05T12:01:43.843Z" agent="5.0 (Windows NT 10.0; Win64; x64) AppleWebKit/537.36 (KHTML, like Gecko) Chrome/89.0.4389.128 Safari/537.36" etag="RhSNhcDPp5bKPbhKxpn2" version="14.6.10" type="github">
  <diagram id="R3LmMJtGSTTKEFVcXVcM" name="Page-1">
    <mxGraphModel dx="2749" dy="882" grid="1" gridSize="10" guides="1" tooltips="1" connect="1" arrows="1" fold="1" page="1" pageScale="1" pageWidth="1169" pageHeight="1654" math="0" shadow="0">
      <root>
        <mxCell id="0" />
        <mxCell id="1" parent="0" />
        <mxCell id="nnpCN0xj_VXWqpMIcu2F-6" value="" style="edgeStyle=orthogonalEdgeStyle;rounded=0;orthogonalLoop=1;jettySize=auto;html=1;" edge="1" parent="1" source="nnpCN0xj_VXWqpMIcu2F-1" target="nnpCN0xj_VXWqpMIcu2F-3">
          <mxGeometry relative="1" as="geometry" />
        </mxCell>
        <mxCell id="nnpCN0xj_VXWqpMIcu2F-1" value="&lt;h2&gt;&lt;font style=&quot;vertical-align: inherit ; font-size: 14px&quot;&gt;&lt;font style=&quot;vertical-align: inherit ; font-size: 14px&quot;&gt;&lt;font style=&quot;vertical-align: inherit ; font-size: 14px&quot;&gt;&lt;font style=&quot;vertical-align: inherit ; font-size: 14px&quot;&gt;&lt;b&gt;會員登入&lt;/b&gt;&lt;/font&gt;&lt;/font&gt;&lt;/font&gt;&lt;/font&gt;&lt;/h2&gt;" style="rounded=1;whiteSpace=wrap;html=1;" vertex="1" parent="1">
          <mxGeometry x="-190" y="305" width="120" height="60" as="geometry" />
        </mxCell>
        <mxCell id="nnpCN0xj_VXWqpMIcu2F-8" style="edgeStyle=elbowEdgeStyle;rounded=0;orthogonalLoop=1;jettySize=auto;html=1;elbow=vertical;" edge="1" parent="1">
          <mxGeometry relative="1" as="geometry">
            <mxPoint x="170" y="500" as="targetPoint" />
            <mxPoint x="106" y="200" as="sourcePoint" />
            <Array as="points">
              <mxPoint x="90" y="500" />
            </Array>
          </mxGeometry>
        </mxCell>
        <mxCell id="nnpCN0xj_VXWqpMIcu2F-2" value="&lt;font style=&quot;font-size: 16px&quot;&gt;帳號(EMAIL)密碼登入&lt;/font&gt;" style="rounded=1;whiteSpace=wrap;html=1;" vertex="1" parent="1">
          <mxGeometry x="170" y="180" width="180" height="50" as="geometry" />
        </mxCell>
        <mxCell id="nnpCN0xj_VXWqpMIcu2F-3" value="&lt;font style=&quot;font-size: 16px&quot;&gt;FB登入&lt;/font&gt;" style="rounded=1;whiteSpace=wrap;html=1;" vertex="1" parent="1">
          <mxGeometry x="180" y="310" width="170" height="50" as="geometry" />
        </mxCell>
        <mxCell id="nnpCN0xj_VXWqpMIcu2F-4" value="&lt;font style=&quot;font-size: 16px&quot;&gt;Google登入&lt;/font&gt;" style="rounded=1;whiteSpace=wrap;html=1;" vertex="1" parent="1">
          <mxGeometry x="170" y="470" width="170" height="50" as="geometry" />
        </mxCell>
        <mxCell id="nnpCN0xj_VXWqpMIcu2F-11" style="edgeStyle=elbowEdgeStyle;rounded=0;orthogonalLoop=1;jettySize=auto;elbow=vertical;html=1;entryX=0;entryY=0.75;entryDx=0;entryDy=0;" edge="1" parent="1" source="nnpCN0xj_VXWqpMIcu2F-4" target="nnpCN0xj_VXWqpMIcu2F-4">
          <mxGeometry relative="1" as="geometry" />
        </mxCell>
        <mxCell id="nnpCN0xj_VXWqpMIcu2F-14" value="" style="edgeStyle=orthogonalEdgeStyle;rounded=0;orthogonalLoop=1;jettySize=auto;html=1;" edge="1" parent="1">
          <mxGeometry relative="1" as="geometry">
            <mxPoint x="100" y="200" as="sourcePoint" />
            <mxPoint x="170" y="200" as="targetPoint" />
            <Array as="points">
              <mxPoint x="120" y="200" />
              <mxPoint x="120" y="200" />
            </Array>
          </mxGeometry>
        </mxCell>
        <mxCell id="nnpCN0xj_VXWqpMIcu2F-43" value="" style="edgeStyle=none;rounded=0;orthogonalLoop=1;jettySize=auto;html=1;entryX=0.658;entryY=1.05;entryDx=0;entryDy=0;entryPerimeter=0;" edge="1" parent="1" source="nnpCN0xj_VXWqpMIcu2F-19" target="nnpCN0xj_VXWqpMIcu2F-30">
          <mxGeometry relative="1" as="geometry">
            <mxPoint x="987.5342465753424" y="377.5" as="targetPoint" />
            <Array as="points">
              <mxPoint x="1015" y="533" />
            </Array>
          </mxGeometry>
        </mxCell>
        <mxCell id="nnpCN0xj_VXWqpMIcu2F-44" value="&lt;h2&gt;是&lt;/h2&gt;" style="edgeLabel;html=1;align=center;verticalAlign=middle;resizable=0;points=[];" vertex="1" connectable="0" parent="nnpCN0xj_VXWqpMIcu2F-43">
          <mxGeometry x="-0.3687" y="3" relative="1" as="geometry">
            <mxPoint x="29" y="3" as="offset" />
          </mxGeometry>
        </mxCell>
        <mxCell id="nnpCN0xj_VXWqpMIcu2F-19" value="&lt;h2&gt;&lt;font style=&quot;font-size: 14px&quot;&gt;是否已註冊會員&lt;/font&gt;&lt;/h2&gt;" style="rounded=1;whiteSpace=wrap;html=1;" vertex="1" parent="1">
          <mxGeometry x="580" y="500" width="180" height="60" as="geometry" />
        </mxCell>
        <mxCell id="nnpCN0xj_VXWqpMIcu2F-21" value="" style="line;strokeWidth=2;html=1;" vertex="1" parent="1">
          <mxGeometry x="512.5" y="400" width="125" height="5" as="geometry" />
        </mxCell>
        <mxCell id="nnpCN0xj_VXWqpMIcu2F-24" value="" style="line;strokeWidth=2;direction=south;html=1;" vertex="1" parent="1">
          <mxGeometry x="570" y="402.5" width="10" height="35" as="geometry" />
        </mxCell>
        <mxCell id="nnpCN0xj_VXWqpMIcu2F-27" value="" style="edgeStyle=elbowEdgeStyle;rounded=0;orthogonalLoop=1;jettySize=auto;html=1;" edge="1" parent="1" source="nnpCN0xj_VXWqpMIcu2F-25" target="nnpCN0xj_VXWqpMIcu2F-19">
          <mxGeometry relative="1" as="geometry">
            <mxPoint x="640" y="440" as="sourcePoint" />
            <Array as="points">
              <mxPoint x="690" y="455" />
              <mxPoint x="670" y="450" />
              <mxPoint x="690" y="480" />
            </Array>
          </mxGeometry>
        </mxCell>
        <mxCell id="nnpCN0xj_VXWqpMIcu2F-25" value="&lt;h2&gt;&lt;font style=&quot;font-size: 24px ; font-weight: normal&quot;&gt;確認成功&lt;/font&gt;&lt;/h2&gt;" style="text;html=1;align=center;verticalAlign=middle;resizable=0;points=[];autosize=1;strokeColor=none;" vertex="1" parent="1">
          <mxGeometry x="520" y="430" width="110" height="50" as="geometry" />
        </mxCell>
        <mxCell id="nnpCN0xj_VXWqpMIcu2F-35" style="edgeStyle=none;rounded=0;orthogonalLoop=1;jettySize=auto;html=1;" edge="1" parent="1">
          <mxGeometry relative="1" as="geometry">
            <mxPoint x="890" y="200" as="targetPoint" />
            <mxPoint x="690" y="390" as="sourcePoint" />
            <Array as="points">
              <mxPoint x="690" y="200" />
            </Array>
          </mxGeometry>
        </mxCell>
        <mxCell id="nnpCN0xj_VXWqpMIcu2F-28" value="&lt;h2&gt;&lt;font style=&quot;font-size: 24px ; font-weight: normal&quot;&gt;確認失敗&lt;/font&gt;&lt;/h2&gt;" style="text;html=1;align=center;verticalAlign=middle;resizable=0;points=[];autosize=1;strokeColor=none;" vertex="1" parent="1">
          <mxGeometry x="637.5" y="377.5" width="110" height="50" as="geometry" />
        </mxCell>
        <mxCell id="nnpCN0xj_VXWqpMIcu2F-59" value="" style="edgeStyle=none;rounded=0;orthogonalLoop=1;jettySize=auto;html=1;fontSize=16;" edge="1" parent="1" source="nnpCN0xj_VXWqpMIcu2F-29">
          <mxGeometry relative="1" as="geometry">
            <mxPoint x="1160" y="190" as="targetPoint" />
          </mxGeometry>
        </mxCell>
        <mxCell id="nnpCN0xj_VXWqpMIcu2F-61" value="" style="edgeStyle=none;rounded=0;orthogonalLoop=1;jettySize=auto;html=1;fontSize=16;" edge="1" parent="1" source="nnpCN0xj_VXWqpMIcu2F-29">
          <mxGeometry relative="1" as="geometry">
            <mxPoint x="1150" y="70" as="targetPoint" />
            <Array as="points">
              <mxPoint x="980" y="70" />
            </Array>
          </mxGeometry>
        </mxCell>
        <mxCell id="nnpCN0xj_VXWqpMIcu2F-29" value="&lt;h2&gt;&lt;font style=&quot;font-size: 14px&quot;&gt;&lt;b&gt;登入失敗&lt;/b&gt;&lt;/font&gt;&lt;/h2&gt;" style="rounded=1;whiteSpace=wrap;html=1;" vertex="1" parent="1">
          <mxGeometry x="890" y="160" width="180" height="60" as="geometry" />
        </mxCell>
        <mxCell id="nnpCN0xj_VXWqpMIcu2F-30" value="&lt;h2&gt;&lt;font style=&quot;font-size: 14px&quot;&gt;&lt;b&gt;登入成功&lt;/b&gt;&lt;/font&gt;&lt;/h2&gt;" style="rounded=1;whiteSpace=wrap;html=1;" vertex="1" parent="1">
          <mxGeometry x="890" y="310" width="190" height="60" as="geometry" />
        </mxCell>
        <mxCell id="nnpCN0xj_VXWqpMIcu2F-52" value="" style="edgeStyle=none;rounded=0;orthogonalLoop=1;jettySize=auto;html=1;entryX=0.563;entryY=1.04;entryDx=0;entryDy=0;entryPerimeter=0;" edge="1" parent="1" target="nnpCN0xj_VXWqpMIcu2F-31">
          <mxGeometry relative="1" as="geometry">
            <mxPoint x="820" y="530" as="sourcePoint" />
            <mxPoint x="850" y="670" as="targetPoint" />
            <Array as="points">
              <mxPoint x="820" y="680" />
            </Array>
          </mxGeometry>
        </mxCell>
        <mxCell id="nnpCN0xj_VXWqpMIcu2F-53" value="&lt;h2 style=&quot;font-size: 16px;&quot;&gt;否&lt;/h2&gt;" style="edgeLabel;html=1;align=center;verticalAlign=middle;resizable=0;points=[];fontSize=16;" vertex="1" connectable="0" parent="nnpCN0xj_VXWqpMIcu2F-52">
          <mxGeometry x="-0.7656" y="2" relative="1" as="geometry">
            <mxPoint x="-2" y="20" as="offset" />
          </mxGeometry>
        </mxCell>
        <mxCell id="nnpCN0xj_VXWqpMIcu2F-31" value="&lt;h2&gt;&lt;font style=&quot;font-size: 14px&quot;&gt;&lt;b&gt;自動加入會員&lt;/b&gt;&lt;/font&gt;&lt;/h2&gt;" style="rounded=1;whiteSpace=wrap;html=1;direction=south;" vertex="1" parent="1">
          <mxGeometry x="930" y="590" width="100" height="160" as="geometry" />
        </mxCell>
        <mxCell id="nnpCN0xj_VXWqpMIcu2F-38" value="" style="edgeStyle=none;rounded=0;orthogonalLoop=1;jettySize=auto;html=1;entryX=0;entryY=0.5;entryDx=0;entryDy=0;" edge="1" parent="1" source="nnpCN0xj_VXWqpMIcu2F-37" target="nnpCN0xj_VXWqpMIcu2F-30">
          <mxGeometry relative="1" as="geometry">
            <mxPoint x="800" y="340" as="targetPoint" />
          </mxGeometry>
        </mxCell>
        <mxCell id="nnpCN0xj_VXWqpMIcu2F-41" value="" style="edgeStyle=none;rounded=0;orthogonalLoop=1;jettySize=auto;html=1;entryX=0;entryY=0.333;entryDx=0;entryDy=0;entryPerimeter=0;exitX=1.033;exitY=0.56;exitDx=0;exitDy=0;exitPerimeter=0;" edge="1" parent="1" source="nnpCN0xj_VXWqpMIcu2F-37" target="nnpCN0xj_VXWqpMIcu2F-29">
          <mxGeometry relative="1" as="geometry">
            <mxPoint x="520" y="310" as="sourcePoint" />
            <mxPoint x="800" y="150" as="targetPoint" />
            <Array as="points">
              <mxPoint x="520" y="180" />
            </Array>
          </mxGeometry>
        </mxCell>
        <mxCell id="nnpCN0xj_VXWqpMIcu2F-37" value="&lt;h2&gt;&lt;font style=&quot;font-weight: normal ; font-size: 18px&quot;&gt;Y&lt;/font&gt;&lt;/h2&gt;" style="text;html=1;align=center;verticalAlign=middle;resizable=0;points=[];autosize=1;strokeColor=none;" vertex="1" parent="1">
          <mxGeometry x="490" y="315" width="30" height="50" as="geometry" />
        </mxCell>
        <mxCell id="nnpCN0xj_VXWqpMIcu2F-54" value="&lt;span&gt;第三方確認&lt;/span&gt;" style="ellipse;shape=doubleEllipse;whiteSpace=wrap;html=1;aspect=fixed;fontSize=16;fillColor=#f8cecc;strokeColor=#b85450;" vertex="1" parent="1">
          <mxGeometry x="380" y="360" width="130" height="130" as="geometry" />
        </mxCell>
        <mxCell id="nnpCN0xj_VXWqpMIcu2F-55" style="edgeStyle=none;rounded=0;orthogonalLoop=1;jettySize=auto;html=1;entryX=0;entryY=0.5;entryDx=0;entryDy=0;fontSize=16;" edge="1" parent="1" source="nnpCN0xj_VXWqpMIcu2F-54" target="nnpCN0xj_VXWqpMIcu2F-54">
          <mxGeometry relative="1" as="geometry" />
        </mxCell>
        <mxCell id="nnpCN0xj_VXWqpMIcu2F-56" value="" style="edgeStyle=elbowEdgeStyle;rounded=0;orthogonalLoop=1;jettySize=auto;html=1;" edge="1" parent="1" source="nnpCN0xj_VXWqpMIcu2F-3">
          <mxGeometry relative="1" as="geometry">
            <mxPoint x="310" y="380" as="sourcePoint" />
            <mxPoint x="380" y="420" as="targetPoint" />
            <Array as="points">
              <mxPoint x="320" y="390" />
            </Array>
          </mxGeometry>
        </mxCell>
        <mxCell id="nnpCN0xj_VXWqpMIcu2F-57" value="" style="edgeStyle=elbowEdgeStyle;rounded=0;orthogonalLoop=1;jettySize=auto;html=1;exitX=1;exitY=0.25;exitDx=0;exitDy=0;" edge="1" parent="1" source="nnpCN0xj_VXWqpMIcu2F-4">
          <mxGeometry relative="1" as="geometry">
            <mxPoint x="350" y="490" as="sourcePoint" />
            <mxPoint x="380" y="420" as="targetPoint" />
            <Array as="points">
              <mxPoint x="350" y="610" />
            </Array>
          </mxGeometry>
        </mxCell>
        <mxCell id="nnpCN0xj_VXWqpMIcu2F-65" value="" style="edgeStyle=none;rounded=0;orthogonalLoop=1;jettySize=auto;html=1;fontSize=16;" edge="1" parent="1" source="nnpCN0xj_VXWqpMIcu2F-58" target="nnpCN0xj_VXWqpMIcu2F-64">
          <mxGeometry relative="1" as="geometry">
            <mxPoint x="1320" y="280" as="targetPoint" />
            <Array as="points" />
          </mxGeometry>
        </mxCell>
        <mxCell id="nnpCN0xj_VXWqpMIcu2F-67" value="" style="edgeStyle=none;rounded=0;orthogonalLoop=1;jettySize=auto;html=1;fontSize=16;" edge="1" parent="1" source="nnpCN0xj_VXWqpMIcu2F-58" target="nnpCN0xj_VXWqpMIcu2F-66">
          <mxGeometry relative="1" as="geometry" />
        </mxCell>
        <mxCell id="nnpCN0xj_VXWqpMIcu2F-58" value="&lt;h2&gt;&lt;font style=&quot;font-size: 16px&quot;&gt;忘記密碼&lt;/font&gt;&lt;/h2&gt;" style="shape=trapezoid;perimeter=trapezoidPerimeter;whiteSpace=wrap;html=1;fixedSize=1;rounded=1;" vertex="1" parent="1">
          <mxGeometry x="1150" y="160" width="120" height="60" as="geometry" />
        </mxCell>
        <mxCell id="nnpCN0xj_VXWqpMIcu2F-63" value="&lt;span style=&quot;font-size: 16px&quot;&gt;尚未註冊&lt;br&gt;(請註冊)&lt;br&gt;&lt;/span&gt;" style="shape=trapezoid;perimeter=trapezoidPerimeter;whiteSpace=wrap;html=1;fixedSize=1;rounded=1;" vertex="1" parent="1">
          <mxGeometry x="1140" y="40" width="120" height="60" as="geometry" />
        </mxCell>
        <mxCell id="nnpCN0xj_VXWqpMIcu2F-70" value="" style="edgeStyle=none;rounded=0;orthogonalLoop=1;jettySize=auto;html=1;fontSize=16;" edge="1" parent="1" source="nnpCN0xj_VXWqpMIcu2F-64" target="nnpCN0xj_VXWqpMIcu2F-68">
          <mxGeometry relative="1" as="geometry" />
        </mxCell>
        <mxCell id="nnpCN0xj_VXWqpMIcu2F-64" value="發認證信 改密碼" style="ellipse;whiteSpace=wrap;html=1;rounded=1;" vertex="1" parent="1">
          <mxGeometry x="1240" y="300" width="120" height="60" as="geometry" />
        </mxCell>
        <mxCell id="nnpCN0xj_VXWqpMIcu2F-69" value="" style="edgeStyle=none;rounded=0;orthogonalLoop=1;jettySize=auto;html=1;fontSize=16;" edge="1" parent="1" source="nnpCN0xj_VXWqpMIcu2F-66" target="nnpCN0xj_VXWqpMIcu2F-68">
          <mxGeometry relative="1" as="geometry" />
        </mxCell>
        <mxCell id="nnpCN0xj_VXWqpMIcu2F-66" value="簡訊發送密碼" style="ellipse;whiteSpace=wrap;html=1;rounded=1;" vertex="1" parent="1">
          <mxGeometry x="1080" y="300" width="120" height="60" as="geometry" />
        </mxCell>
        <mxCell id="nnpCN0xj_VXWqpMIcu2F-72" value="" style="edgeStyle=none;rounded=0;orthogonalLoop=1;jettySize=auto;html=1;fontSize=16;" edge="1" parent="1" source="nnpCN0xj_VXWqpMIcu2F-68" target="nnpCN0xj_VXWqpMIcu2F-71">
          <mxGeometry relative="1" as="geometry" />
        </mxCell>
        <mxCell id="nnpCN0xj_VXWqpMIcu2F-68" value="改密碼" style="ellipse;whiteSpace=wrap;html=1;rounded=1;" vertex="1" parent="1">
          <mxGeometry x="1160" y="410" width="120" height="60" as="geometry" />
        </mxCell>
        <mxCell id="nnpCN0xj_VXWqpMIcu2F-71" value="完成登入" style="ellipse;whiteSpace=wrap;html=1;rounded=1;" vertex="1" parent="1">
          <mxGeometry x="1160" y="540" width="120" height="60" as="geometry" />
        </mxCell>
      </root>
    </mxGraphModel>
  </diagram>
</mxfile>
